<svg height="512" viewBox="0 0 512 512" width="512" xmlns="http://www.w3.org/2000/svg"><g id="filled_outline" data-name="filled outline"><path d="m97.107 324.107h383.893v115.893h-383.893z" fill="#5b3719"/><path d="m421.01 194.67c-.02.36-.06.73-.1 1.1l-1.6 14.45a220.7 220.7 0 0 1 -14.44 57.6l-4.87 12.18h-21a220.718 220.718 0 0 0 42.01-85.33z" fill="#a86e09"/><path d="m409.085 171.66 6.915-27.66-32-6v33.106a24.987 24.987 0 0 0 -12.351 16.477l-.537 2.417a220.719 220.719 0 0 1 -43.112 90h72l4.872-12.179a220.734 220.734 0 0 0 14.437-57.6l1.606-14.45a24.993 24.993 0 0 0 -11.83-24.111z" fill="#ee9d0d"/><path d="m421.01 194.67c-.02.36-.06.73-.1 1.1l-1.6 14.45a220.7 220.7 0 0 1 -14.44 57.6l-4.87 12.18h-21a220.718 220.718 0 0 0 42.01-85.33z" fill="#a86e09"/><path d="m466.308 172.46 5.692-28.46h-32l5.007 25.033a25 25 0 0 0 -17.359 18.55l-.536 2.417a220.719 220.719 0 0 1 -43.112 90h72l4.872-12.179a220.734 220.734 0 0 0 14.437-57.6l1.606-14.45a24.977 24.977 0 0 0 -10.607-23.311z" fill="#ee9d0d"/><path d="m170 136h44a74 74 0 0 1 74 74v70a0 0 0 0 1 0 0h-192a0 0 0 0 1 0 0v-70a74 74 0 0 1 74-74z" fill="#ee9d0d"/><path d="m247.77 246.03 14.54-13.68a7.988 7.988 0 0 0 9.59-9.03l16.08-15.14a73.75 73.75 0 0 0 -3-19.15l-23.55 22.16-16.39-15.3 29.79-28.04a74.209 74.209 0 0 0 -10.49-12.09l-31.02 29.19-16.81-15.68 28.13-26.65a72.856 72.856 0 0 0 -17.5-5.45l-22.34 21.16-13.07-12.2 10.86-10.13h-32.59a74.044 74.044 0 0 0 -11.61.91l9.88 9.22-13.07 12.2-16.33-15.48a73.5 73.5 0 0 0 -14.17 8.63l18.79 17.79-16.81 15.68-17.77-16.72a73.023 73.023 0 0 0 -7.78 14.64l13.83 13.02-12.38 11.56-6.12-5.76a76.015 76.015 0 0 0 -.46 8.31v25.48l6.54-6.1 13.68 12.87-20.22 19.15v18.6h3.63l28.26-26.77 16.44 15.48-12 11.29h47.32a1.584 1.584 0 0 0 -.22-.23l-11.76-11.06 12.33-11.61 16.33 15.37-7.76 7.3a1.584 1.584 0 0 0 -.22.23h39.33l-8.01-7.53 16.43-15.46 24.27 22.99h19.63a7.979 7.979 0 0 0 -2.5-5.81zm-42.89-65.74 16.76 15.65-13.41 12.62-16.6-15.72zm-24.88-23.21 13.16 12.28-13.16 12.46-13.16-12.46zm-24.88 23.22 13.25 12.54-16.6 15.72-13.41-12.62zm-27.27 50.93-13.59-12.8 12.38-11.55 13.5 12.71zm28.15 26.49-16.48-15.51 12.29-11.64 16.52 15.55zm7.44-38.17 16.56-15.69 16.56 15.69-16.56 15.58zm44.56 41.93-16.33-15.36 16.52-15.55 16.28 15.42zm11.86-41.89 13.5-12.71 16.4 15.3-13.62 12.82z" fill="#ee9d0d"/><path d="m200 40-32 96h56z" fill="#667447"/><path d="m88 280h400v48h-400z" fill="#915628"/><path d="m88 360h400v48h-400z" fill="#915628"/><path d="m88 440h400v48h-400z" fill="#915628"/><g fill="#a3612d"><path d="m128 280h32v208h-32z"/><path d="m224 280h32v208h-32z"/><path d="m320 280h32v208h-32z"/><path d="m416 280h32v208h-32z"/></g><path d="m311.725 216a8 8 0 0 1 -8-8 84.7 84.7 0 0 1 24.969-60.284l1.374-1.374a8 8 0 1 1 11.313 11.316l-1.373 1.372a68.805 68.805 0 0 0 -20.283 48.97 8 8 0 0 1 -8 8z" fill="#768753"/><rect fill="#d19e30" height="32" rx="16" width="112" x="376" y="112"/><path d="m247.77 246.03 14.54-13.68a7.988 7.988 0 0 0 9.59-9.03l16.08-15.14a73.75 73.75 0 0 0 -3-19.15l-23.55 22.16-16.39-15.3 29.79-28.04a74.209 74.209 0 0 0 -10.49-12.09l-31.02 29.19-16.81-15.68 28.13-26.65a72.856 72.856 0 0 0 -17.5-5.45l-22.34 21.16-13.07-12.2 10.86-10.13h-32.59a74.044 74.044 0 0 0 -11.61.91l9.88 9.22-13.07 12.2-16.33-15.48a73.5 73.5 0 0 0 -14.17 8.63l18.79 17.79-16.81 15.68-17.77-16.72a73.023 73.023 0 0 0 -7.78 14.64l13.83 13.02-12.38 11.56-6.12-5.76a76.015 76.015 0 0 0 -.46 8.31v25.48l6.54-6.1 13.68 12.87-20.22 19.15v18.6h3.63l28.26-26.77 16.44 15.48-12 11.29h23.34l.33-.31.33.31h23.32a1.584 1.584 0 0 0 -.22-.23l-11.76-11.06 12.33-11.61 16.33 15.37-7.76 7.3a1.584 1.584 0 0 0 -.22.23h39.33l-8.01-7.53 16.43-15.46 24.27 22.99h19.63a7.979 7.979 0 0 0 -2.5-5.81zm-42.89-65.74 16.76 15.65-13.41 12.62-16.6-15.72zm-24.88-23.21 13.16 12.28-13.16 12.46-13.16-12.46zm-24.88 23.22 13.25 12.54-16.6 15.72-13.41-12.62zm-27.27 50.93-13.59-12.8 12.38-11.55 13.5 12.71zm28.15 26.49-16.48-15.51 12.29-11.64 16.52 15.55zm7.44-38.17 16.56-15.69 16.56 15.69-16.56 15.58zm44.56 41.93-16.33-15.36 16.52-15.55 16.28 15.42zm11.86-41.89 13.5-12.71 16.4 15.3-13.62 12.82z" fill="#c7830b"/><path d="m280 48-22.347 26.816a174.052 174.052 0 0 0 -27.894 46.784l-5.759 14.4h-40l1.432-2.864a174.059 174.059 0 0 1 94.568-85.136z" fill="#768753"/><path d="m112 48 22.347 26.816a174.052 174.052 0 0 1 27.894 46.784l5.759 14.4h40l-1.432-2.864a174.059 174.059 0 0 0 -94.568-85.136z" fill="#91a666"/><path d="m250.724 128h37.6a28 28 0 0 1 26.218 18.169l8.182 21.831h-32.8a28 28 0 0 1 -24.273-14.043z" fill="#91a666"/><path d="m367.724 280h-112l-17.094-34.188a34.392 34.392 0 0 1 -1.171-28.149 40.825 40.825 0 0 1 37.905-25.663 40.828 40.828 0 0 1 22.645 6.856l13.715 9.144 13.716-9.144a40.828 40.828 0 0 1 22.645-6.856 40.823 40.823 0 0 1 37.9 25.663 34.392 34.392 0 0 1 -1.171 28.149z" fill="#ea2b2d"/><path d="m362 248a26 26 0 0 0 -26 26v6h64v-32z" fill="#bbbab6"/><path d="m366 248a26 26 0 0 1 26 26v134h96v-134a26 26 0 0 0 -26-26z" fill="#cdccc8"/><path d="m477.228 243.614a229.531 229.531 0 0 0 6.033-32.511l1.6-14.451a32.987 32.987 0 0 0 -9.78-27.287l3.667-18.339a24 24 0 0 0 -6.748-47.026h-80a23.986 23.986 0 0 0 -16 41.869v20.931a33.016 33.016 0 0 0 -12.161 19.044l-.153.687a48.957 48.957 0 0 0 -42.051 5.261 68.8 68.8 0 0 1 18.373-32.765l1.373-1.372a8 8 0 1 0 -11.313-11.316l-1.374 1.374c-1.246 1.246-2.433 2.534-3.591 3.842l-3.075-8.2a36.168 36.168 0 0 0 -33.708-23.355h-37.595a8 8 0 0 0 -6.936 11.988l1.256 2.185c-1.748-.72-3.521-1.387-5.321-1.987a7.962 7.962 0 0 0 -1.869-.6q-1.548-.476-3.12-.888l2.452-6.128a165.775 165.775 0 0 1 26.613-44.632l22.347-26.816a8 8 0 0 0 -8.955-12.613 181.233 181.233 0 0 0 -59.642 36.7l-9.789-39.149a8 8 0 0 0 -15.351-.59l-14.385 43.155a181.78 181.78 0 0 0 -63.216-40.116 8 8 0 0 0 -8.955 12.613l22.346 26.816a165.775 165.775 0 0 1 26.612 44.636l1.814 4.534a82.12 82.12 0 0 0 -68.626 80.892v62a8 8 0 0 0 -8 8v48a8 8 0 0 0 8 8h1.107v16h-1.107a8 8 0 0 0 -8 8h-32a8 8 0 0 0 0 16h32v32a8 8 0 0 0 8 8h1.107v16h-1.107a8 8 0 0 0 -8 8v48a8 8 0 0 0 8 8h400a8 8 0 0 0 8-8v-48a8 8 0 0 0 -7-7.931v-16.138a8 8 0 0 0 7-7.931v-134a34.032 34.032 0 0 0 -18.772-30.386zm-21.228 188.386v-16h17v16zm8-144h16v16h-56a8 8 0 0 0 0 16h56v16h-32a8 8 0 0 0 0 16h32v48h-80v-128a8 8 0 0 0 -.218-1.863 33.771 33.771 0 0 0 -4.948-14.137h67.166a18.021 18.021 0 0 1 17.882 16h-15.882a8 8 0 0 0 0 16zm-102-32h4a18.021 18.021 0 0 1 17.882 16h-39.764a18.021 18.021 0 0 1 17.882-16zm-2 144v-32h24v32zm24-48h-24v-16h24zm0-64v32h-24v-32zm-24 160h48v32h-48zm48-16h-48v-16h48zm14.246-280h11.2l2.45 12.249a33.027 33.027 0 0 0 -11.845 11.33 33.114 33.114 0 0 0 -5.919-7.1zm3.331 71.007a228.683 228.683 0 0 0 9.345-31.277l.536-2.412a17 17 0 0 1 11.808-12.61 8 8 0 0 0 5.586-9.244l-3.093-15.464h12.483l-3.778 18.891a8 8 0 0 0 3.277 8.137 17.019 17.019 0 0 1 7.223 15.858l-1.606 14.45a213.334 213.334 0 0 1 -5.721 30.664h-43.279c2.409-5.087 7.08-16.471 7.219-16.993zm-33.577-103.007h80a8 8 0 0 1 0 16h-80a8 8 0 0 1 0-16zm-13.078 71.73.536-2.412a17.027 17.027 0 0 1 8.4-11.206 8 8 0 0 0 4.142-7.006v-19.106h13.754l-4.43 17.72a8 8 0 0 0 3.585 8.764 17.1 17.1 0 0 1 8.055 16.4l-1.606 14.448c-.347 3.12-.777 6.266-1.263 9.376a212.539 212.539 0 0 1 -9.595 21.292h-5.163a42.4 42.4 0 0 0 -1.921-25.308 48.811 48.811 0 0 0 -15.116-20.275c.215-.899.425-1.797.622-2.687zm-30.837 8.27a32.668 32.668 0 0 1 30.477 20.634 26.4 26.4 0 0 1 .084 19.366h-16.646a34.041 34.041 0 0 0 -33.937 32h-67.394l-14.884-29.766a26.411 26.411 0 0 1 -.9-21.6 33.03 33.03 0 0 1 5.12-8.674c.085-.083.174-.159.256-.247a7.989 7.989 0 0 0 .612-.75 32.828 32.828 0 0 1 42.7-5.449l13.716 9.143a8 8 0 0 0 8.875 0l13.715-9.143a32.718 32.718 0 0 1 18.206-5.514zm-240.008 72 19.809-18.767 16.441 15.473-3.5 3.294zm-12.077 128v-32h24v32zm24-80h-24v-32h24zm138.453-158.706-25.136 23.658-16.8-15.682 21.746-20.6a66.672 66.672 0 0 1 20.19 12.624zm5.547 206.706h48v32h-48zm0 48h48v16h-48zm48-64h-48v-16h48zm-78.236-144.743a49.44 49.44 0 0 0 -3.733 7.435 42.333 42.333 0 0 0 -2.834 11.843l-7.335-6.948 13.5-12.706zm-25.536 1.307-16.6-15.722 13.248-12.542 16.764 15.646zm-11.671 10.984-16.557 15.584-16.557-15.584 16.557-15.686zm-28.23 26.569-12.327 11.602-16.479-15.509 12.287-11.64zm2.846 25.883-3.5-3.294 12.327-11.606 15.828 14.9zm20.5-25.882 16.519-15.548 16.274 15.418-16.466 15.497zm58.808-55.349 18.432-17.347a65.333 65.333 0 0 1 5.771 10.591 48.777 48.777 0 0 0 -24.203 6.756zm-30.82-46.52-14.861 14.083-13.07-12.2 2.281-2.132h19.989c1.9 0 3.79.087 5.661.249zm-53.54-.126 2.154 2.011-13.07 12.2-10.005-9.481a65.51 65.51 0 0 1 20.921-4.73zm13.879 12.954 13.157 12.28-13.157 12.465-13.157-12.465zm-11.632 35.765-16.6 15.722-13.408-12.623 16.764-15.641zm-28.23 26.744-12.287 11.64-13.591-12.791 12.379-11.554zm-36.138 11.165 12.216 11.5-12.216 11.571zm.133-24.751a65.562 65.562 0 0 1 3.359-17.138l7.47 7.03zm63.867 162h48v32h-48zm0 48h48v16h-48zm48-64h-48v-16h48zm-48 96h48v32h-48zm48-128h-48v-32h48zm4.172-48 15.374-14.469 7.234 14.469zm43.828 176h48v32h-48zm48-128h-48v-32h48zm-7.089-126.156-2.465-1.644a48.9 48.9 0 0 0 -9.663-4.991 80.859 80.859 0 0 0 -4.186-11.253c.442.016.882.044 1.326.044h20a84.437 84.437 0 0 0 -5.012 17.844zm-16.591-57.844a20.094 20.094 0 0 1 18.728 12.978l4.133 11.022h-21.258a20.052 20.052 0 0 1 -17.338-10.031l-8.032-13.969zm-39.293-63.263a181.778 181.778 0 0 0 -26.7 45.894l-3.8 9.511c-1.5-.084-3.009-.142-4.527-.142h-1.078q-3.414-6.666-7.321-12.987a167.077 167.077 0 0 1 13.19-16.369c.201-.195 19.385-18.694 30.236-25.907zm-50.127-4.145 5.523 22.092q-4.382 5-8.416 10.336-2.707-3.579-5.575-7.02zm-55.89 4.191a165.4 165.4 0 0 1 51.705 55.217h-21.3l-3.747-9.369a181.737 181.737 0 0 0 -26.658-45.848zm-12.4 84.291 12.873 12.2-16.8 15.681-11.837-11.14a66.521 66.521 0 0 1 15.767-16.741zm-25.503 178.926h14.893v16h-14.893zm0 80h14.893v16h-14.893zm-9.107 32h24v32h-24zm40 32v-192h16v192zm96 0v-192h16v192zm96 0v-192h16v192zm96 0v-64h16v64zm56 0h-24v-32h24z"/><path d="m432 272h-8a8 8 0 0 0 0 16h8a8 8 0 0 0 0-16z"/><path d="m424 384h16a8 8 0 0 0 0-16h-16a8 8 0 0 0 0 16z"/><path d="m24 312h40a8 8 0 0 0 0-16h-40a8 8 0 0 0 0 16z"/><path d="m64 328h-24a8 8 0 0 0 0 16h24a8 8 0 0 0 0-16z"/><path d="m64 400a8 8 0 0 0 -8-8h-32a8 8 0 0 0 0 16h32a8 8 0 0 0 8-8z"/><path d="m64 424h-24a8 8 0 0 0 0 16h24a8 8 0 0 0 0-16z"/></g></svg>